{"title":"The Purge Anarchy 2014 BRRip x264 AAC-TOPNOTCH","uid":11194632,"size":786450565,"categoryP":"video","categoryS":"movies","magnet":"?xt=urn:btih:595cc10a491e717864eaba85dea80e3b70aa9ebd&amp;dn=The+Purge+Anarchy+2014+BRRip+x264+AAC-TOPNOTCH&amp;tr=udp%3A%2F%2Ftracker.openbittorrent.com%3A80&amp;tr=udp%3A%2F%2Fopen.demonii.com%3A1337&amp;tr=udp%3A%2F%2Ftracker.coppersurfer.tk%3A6969&amp;tr=udp%3A%2F%2Fexodus.desync.com%3A6969","seeders":2,"leechers":0,"uploader":"TvTeam","files":3,"time":1413064302,"description":" &lt;a href=&quot;http://www.torrenting.com&quot; rel=&quot;nofollow&quot; target=&quot;_NEW&quot;&gt;http://www.torrenting.com&lt;/a&gt;\n\nSign up is OPEN - for time being. Come and have fun.\n\n\n....[img]http://s29.postimg.org/5ngyc6cfr/MV5_BMj_E2_ODMx_MTk1_Nl5_BMl5_Ban_Bn_Xk_Ft_ZTgw_MDEz_Nj_Ez_MTE.jpg[/img]\n\nSOURCE: 720p.BluRay.x264-SPARKS :) Thnx\n\nNOTES - Increased gamma and coef settings and gsve it some life :) enjoy &lt;a href=&quot;\nhttp://www.imdb.com/title/tt2975578/&quot; rel=&quot;nofollow&quot; target=&quot;_NEW&quot;&gt;\nhttp://www.imdb.com/title/tt2975578/&lt;/a&gt;\n\nA young couple works to survive on the streets after their car breaks down right as the annual purge commences.\n\nGeneral\nComplete name                            : The Purge Anarchy 2014 BRRip x264 AAC-TOPNOTCH.mp4\nFormat                                   : MPEG-4\nFormat profile                           : Base Media\nCodec ID                                 : isom\nFile size                                : 750 MiB\nDuration                                 : 1h 43mn\nOverall bit rate mode                    : Variable\nOverall bit rate                         : 1 012 Kbps\nEncoded date                             : UTC 2014-10-11 18:55:06\nTagged date                              : UTC 2014-10-11 18:55:06\n\nVideo\nID                                       : 1\nFormat                                   : AVC\nFormat/Info                              : Advanced Video Codec\nFormat profile                           : &lt;a class=&quot;__cf_email__&quot; href=&quot;/cdn-cgi/l/email-protection&quot; data-cfemail=&quot;f7bf9e909fb7bbc3d9c6&quot;&gt;[email&amp;#160;protected]&lt;/a&gt;&lt;script cf-hash='f9e31' type=&quot;text/javascript&quot;&gt;\n/* &lt;![CDATA[ */!function(){try{var t=&quot;currentScript&quot;in document?document.currentScript:function(){for(var t=document.getElementsByTagName(&quot;script&quot;),e=t.length;e--;)if(t[e].getAttribute(&quot;cf-hash&quot;))return t[e]}();if(t&amp;&amp;t.previousSibling){var e,r,n,i,c=t.previousSibling,a=c.getAttribute(&quot;data-cfemail&quot;);if(a){for(e=&quot;&quot;,r=parseInt(a.substr(0,2),16),n=2;a.length-n;n+=2)i=parseInt(a.substr(n,2),16)^r,e+=String.fromCharCode(i);e=document.createTextNode(e),c.parentNode.replaceChild(e,c)}}}catch(u){}}();/* ]]&gt; */&lt;/script&gt;\nFormat settings, CABAC                   : Yes\nFormat settings, ReFrames                : 3 frames\nFormat settings, GOP                     : M=4, N=23\nCodec ID                                 : avc1\nCodec ID/Info                            : Advanced Video Coding\nDuration                                 : 1h 43mn\nBit rate mode                            : Variable\nBit rate                                 : 694 Kbps\nMaximum bit rate                         : 40.0 Mbps\nWidth                                    : 720 pixels\nHeight                                   : 304 pixels\nDisplay aspect ratio                     : 2.35:1\nFrame rate mode                          : Constant\nFrame rate                               : 23.976 fps\nColor space                              : YUV\nChroma subsampling                       : 4:2:0\nBit depth                                : 8 bits\nScan type                                : Progressive\nBits/(Pixel*Frame)                       : 0.132\nStream size                              : 514 MiB (69%)\nWriting library                          : x264 core 142 r2479 dd79a61\n\nAudio\nID                                       : 2\nFormat                                   : AAC\nFormat/Info                              : Advanced Audio Codec\nFormat profile                           : LC\nCodec ID                                 : 40\nDuration                                 : 1h 43mn\nBit rate mode                            : Variable\nBit rate                                 : 314 Kbps\nMaximum bit rate                         : 423 Kbps\nChannel(s)                               : 6 channels\nChannel positions                        : Front: L C R, Side: L R, LFE\nSampling rate                            : 48.0 KHz\nCompression mode                         : Lossy\nStream size                              : 233 MiB (31%)\nLanguage                                 : English\nEncoded date                             : UTC 2014-10-11 13:54:02\nTagged date                              : UTC 2014-10-11 18:57:57\n\n[img]http://s28.postimg.org/51e0v53q5/The_Purge_Anarchy_2014_BRRip_x264_AAC_TOPNOTCH_m.jpg[/img]\n[img]http://s28.postimg.org/hu24v2fbx/The_Purge_Anarchy_2014_BRRip_x264_AAC_TOPNOTCH_m.jpg[/img]\n[img]http://s28.postimg.org/k8u0fhvkt/The_Purge_Anarchy_2014_BRRip_x264_AAC_TOPNOTCH_m.jpg[/img]\n[img]http://s28.postimg.org/uhmhlbjml/The_Purge_Anarchy_2014_BRRip_x264_AAC_TOPNOTCH_m.jpg[/img]\n[img]http://s28.postimg.org/6b78wg84d/The_Purge_Anarchy_2014_BRRip_x264_AAC_TOPNOTCH_m.jpg[/img]\n[img]http://s28.postimg.org/ll743n3ml/The_Purge_Anarchy_2014_BRRip_x264_AAC_TOPNOTCH_m.jpg[/img]\n[img]http://s28.postimg.org/9tj8su90d/The_Purge_Anarchy_2014_BRRip_x264_AAC_TOPNOTCH_m.jpg[/img]\n\n[img]http://i.imgur.com/f4Ju18v.gif[/img]","torrent":{"xt":"urn:btih:595cc10a491e717864eaba85dea80e3b70aa9ebd","amp;dn":"The+Purge+Anarchy+2014+BRRip+x264+AAC-TOPNOTCH","amp;tr":["udp%3A%2F%2Ftracker.openbittorrent.com%3A80","udp%3A%2F%2Fopen.demonii.com%3A1337","udp%3A%2F%2Ftracker.coppersurfer.tk%3A6969","udp%3A%2F%2Fexodus.desync.com%3A6969"],"infoHash":"595cc10a491e717864eaba85dea80e3b70aa9ebd","infoHashBuffer":{"type":"Buffer","data":[89,92,193,10,73,30,113,120,100,234,186,133,222,168,14,59,112,170,158,189]},"announce":[],"urlList":[]}}